<svg width="25" height="24" viewBox="0 0 25 24" fill="none" xmlns="http://www.w3.org/2000/svg">
<path d="M21.0625 4.49998V8.99998C21.0625 9.14916 21.0032 9.29224 20.8977 9.39772C20.7923 9.50321 20.6492 9.56248 20.5 9.56248H16C15.8508 9.56248 15.7077 9.50321 15.6023 9.39772C15.4968 9.29224 15.4375 9.14916 15.4375 8.99998C15.4375 8.85079 15.4968 8.70772 15.6023 8.60223C15.7077 8.49674 15.8508 8.43748 16 8.43748H19.1425L17.4503 6.74998C16.0216 5.315 14.0818 4.50576 12.0569 4.49998H12.0138C10.0062 4.49364 8.07689 5.27764 6.64281 6.68248C6.59062 6.73696 6.52801 6.78038 6.45869 6.81016C6.38938 6.83995 6.31478 6.85549 6.23934 6.85585C6.1639 6.85622 6.08915 6.8414 6.01955 6.81229C5.94995 6.78317 5.88692 6.74036 5.83421 6.68639C5.7815 6.63242 5.74018 6.56839 5.71271 6.49813C5.68525 6.42786 5.6722 6.35279 5.67435 6.27737C5.67649 6.20196 5.69378 6.12775 5.72519 6.05916C5.7566 5.99056 5.80149 5.92899 5.85719 5.8781C7.49966 4.26485 9.71152 3.36354 12.0138 3.36935H12.0625C14.3856 3.37527 16.6113 4.30364 18.25 5.95029L19.9375 7.63779V4.49998C19.9375 4.35079 19.9968 4.20772 20.1023 4.10223C20.2077 3.99674 20.3508 3.93748 20.5 3.93748C20.6492 3.93748 20.7923 3.99674 20.8977 4.10223C21.0032 4.20772 21.0625 4.35079 21.0625 4.49998ZM17.8572 17.3175C16.424 18.7244 14.4946 19.5104 12.4862 19.5056H12.4431C10.4182 19.4998 8.47838 18.6906 7.04969 17.2556L5.3575 15.5625H8.5C8.64918 15.5625 8.79226 15.5032 8.89775 15.3977C9.00324 15.2922 9.0625 15.1492 9.0625 15C9.0625 14.8508 9.00324 14.7077 8.89775 14.6022C8.79226 14.4967 8.64918 14.4375 8.5 14.4375H4C3.85082 14.4375 3.70774 14.4967 3.60225 14.6022C3.49676 14.7077 3.4375 14.8508 3.4375 15V19.5C3.4375 19.6492 3.49676 19.7922 3.60225 19.8977C3.70774 20.0032 3.85082 20.0625 4 20.0625C4.14918 20.0625 4.29226 20.0032 4.39775 19.8977C4.50324 19.7922 4.5625 19.6492 4.5625 19.5V16.3575L6.25 18.0497C7.88873 19.6963 10.1144 20.6247 12.4375 20.6306H12.4862C14.7885 20.6364 17.0003 19.7351 18.6428 18.1219C18.6985 18.071 18.7434 18.0094 18.7748 17.9408C18.8062 17.8722 18.8235 17.798 18.8257 17.7226C18.8278 17.6472 18.8147 17.5721 18.7873 17.5018C18.7598 17.4316 18.7185 17.3675 18.6658 17.3136C18.6131 17.2596 18.55 17.2168 18.4804 17.1877C18.4108 17.1586 18.3361 17.1437 18.2607 17.1441C18.1852 17.1445 18.1106 17.16 18.0413 17.1898C17.972 17.2196 17.9094 17.263 17.8572 17.3175Z" fill="white"/>
</svg>
