<svg width="24" height="24" viewBox="0 0 24 24" fill="none" xmlns="http://www.w3.org/2000/svg">
<path d="M19.5 3.1875H17.0625V2.25C17.0625 2.10082 17.0032 1.95774 16.8977 1.85225C16.7923 1.74676 16.6492 1.6875 16.5 1.6875C16.3508 1.6875 16.2077 1.74676 16.1023 1.85225C15.9968 1.95774 15.9375 2.10082 15.9375 2.25V3.1875H8.0625V2.25C8.0625 2.10082 8.00324 1.95774 7.89775 1.85225C7.79226 1.74676 7.64918 1.6875 7.5 1.6875C7.35082 1.6875 7.20774 1.74676 7.10225 1.85225C6.99676 1.95774 6.9375 2.10082 6.9375 2.25V3.1875H4.5C4.1519 3.1875 3.81806 3.32578 3.57192 3.57192C3.32578 3.81806 3.1875 4.1519 3.1875 4.5V19.5C3.1875 19.8481 3.32578 20.1819 3.57192 20.4281C3.81806 20.6742 4.1519 20.8125 4.5 20.8125H19.5C19.8481 20.8125 20.1819 20.6742 20.4281 20.4281C20.6742 20.1819 20.8125 19.8481 20.8125 19.5V4.5C20.8125 4.1519 20.6742 3.81806 20.4281 3.57192C20.1819 3.32578 19.8481 3.1875 19.5 3.1875ZM4.5 4.3125H6.9375V5.25C6.9375 5.39918 6.99676 5.54226 7.10225 5.64775C7.20774 5.75324 7.35082 5.8125 7.5 5.8125C7.64918 5.8125 7.79226 5.75324 7.89775 5.64775C8.00324 5.54226 8.0625 5.39918 8.0625 5.25V4.3125H15.9375V5.25C15.9375 5.39918 15.9968 5.54226 16.1023 5.64775C16.2077 5.75324 16.3508 5.8125 16.5 5.8125C16.6492 5.8125 16.7923 5.75324 16.8977 5.64775C17.0032 5.54226 17.0625 5.39918 17.0625 5.25V4.3125H19.5C19.5497 4.3125 19.5974 4.33225 19.6326 4.36742C19.6677 4.40258 19.6875 4.45027 19.6875 4.5V7.6875H4.3125V4.5C4.3125 4.45027 4.33225 4.40258 4.36742 4.36742C4.40258 4.33225 4.45027 4.3125 4.5 4.3125ZM19.5 19.6875H4.5C4.45027 19.6875 4.40258 19.6677 4.36742 19.6326C4.33225 19.5974 4.3125 19.5497 4.3125 19.5V8.8125H19.6875V19.5C19.6875 19.5497 19.6677 19.5974 19.6326 19.6326C19.5974 19.6677 19.5497 19.6875 19.5 19.6875ZM14.6475 12.3975L12.795 14.25L14.6475 16.1025C14.7028 16.154 14.7471 16.2161 14.7778 16.2851C14.8086 16.3541 14.8251 16.4286 14.8264 16.5041C14.8278 16.5796 14.8139 16.6547 14.7856 16.7247C14.7573 16.7947 14.7152 16.8584 14.6618 16.9118C14.6084 16.9652 14.5447 17.0073 14.4747 17.0356C14.4047 17.0639 14.3296 17.0778 14.2541 17.0764C14.1786 17.0751 14.1041 17.0586 14.0351 17.0278C13.9661 16.9971 13.904 16.9528 13.8525 16.8975L12 15.045L10.1475 16.8975C10.0409 16.9969 9.89983 17.051 9.75411 17.0484C9.60838 17.0458 9.46934 16.9868 9.36628 16.8837C9.26322 16.7807 9.20419 16.6416 9.20162 16.4959C9.19905 16.3502 9.25314 16.2091 9.3525 16.1025L11.205 14.25L9.3525 12.3975C9.29724 12.346 9.25291 12.2839 9.22216 12.2149C9.19142 12.1459 9.17489 12.0714 9.17356 11.9959C9.17222 11.9204 9.18612 11.8453 9.21441 11.7753C9.2427 11.7053 9.28481 11.6416 9.33822 11.5882C9.39164 11.5348 9.45526 11.4927 9.5253 11.4644C9.59534 11.4361 9.67036 11.4222 9.74589 11.4236C9.82142 11.4249 9.8959 11.4414 9.9649 11.4722C10.0339 11.5029 10.096 11.5472 10.1475 11.6025L12 13.455L13.8525 11.6025C13.904 11.5472 13.9661 11.5029 14.0351 11.4722C14.1041 11.4414 14.1786 11.4249 14.2541 11.4236C14.3296 11.4222 14.4047 11.4361 14.4747 11.4644C14.5447 11.4927 14.6084 11.5348 14.6618 11.5882C14.7152 11.6416 14.7573 11.7053 14.7856 11.7753C14.8139 11.8453 14.8278 11.9204 14.8264 11.9959C14.8251 12.0714 14.8086 12.1459 14.7778 12.2149C14.7471 12.2839 14.7028 12.346 14.6475 12.3975Z" fill="white"/>
</svg>
