<svg width="24" height="24" viewBox="0 0 24 24" fill="none" xmlns="http://www.w3.org/2000/svg">
<path opacity="0.2" d="M7.5 12L15 4.5L15 19.5L7.5 12Z" fill="#592D96"/>
<path d="M6.96937 12.531L14.4694 20.031C14.5743 20.136 14.708 20.2075 14.8535 20.2365C14.9991 20.2655 15.15 20.2507 15.2871 20.1939C15.4242 20.137 15.5414 20.0408 15.6238 19.9174C15.7062 19.7939 15.7501 19.6488 15.75 19.5004L15.75 4.50038C15.7501 4.35196 15.7062 4.20684 15.6238 4.0834C15.5414 3.95995 15.4242 3.86373 15.2871 3.80692C15.15 3.7501 14.9991 3.73525 14.8535 3.76424C14.708 3.79323 14.5743 3.86475 14.4694 3.96976L6.96937 11.4698C6.89964 11.5394 6.84432 11.6221 6.80658 11.7132C6.76884 11.8042 6.74941 11.9018 6.74941 12.0004C6.74941 12.0989 6.76884 12.1965 6.80658 12.2876C6.84432 12.3786 6.89964 12.4614 6.96937 12.531ZM14.25 6.3107L14.25 17.6901L8.56031 12.0004L14.25 6.3107Z" fill="#592D96"/>
</svg>
