<svg width="25" height="24" viewBox="0 0 25 24" fill="none" xmlns="http://www.w3.org/2000/svg">
<path d="M22.3125 19.5C22.3125 19.6492 22.2532 19.7923 22.1477 19.8977C22.0423 20.0032 21.8992 20.0625 21.75 20.0625H3.75C3.60082 20.0625 3.45774 20.0032 3.35225 19.8977C3.24676 19.7923 3.1875 19.6492 3.1875 19.5V4.5C3.1875 4.35082 3.24676 4.20774 3.35225 4.10225C3.45774 3.99676 3.60082 3.9375 3.75 3.9375C3.89918 3.9375 4.04226 3.99676 4.14775 4.10225C4.25324 4.20774 4.3125 4.35082 4.3125 4.5V13.7606L9.37969 9.32625C9.47679 9.24141 9.60009 9.19251 9.72894 9.18773C9.8578 9.18295 9.98438 9.22259 10.0875 9.3L15.7228 13.5262L21.3797 8.57625C21.4929 8.48902 21.6352 8.44817 21.7774 8.46202C21.9197 8.47587 22.0514 8.54337 22.1457 8.6508C22.24 8.75824 22.2898 8.89755 22.2851 9.04042C22.2804 9.18329 22.2215 9.31901 22.1203 9.42L16.1203 14.67C16.0232 14.7548 15.8999 14.8037 15.7711 14.8085C15.6422 14.8133 15.5156 14.7737 15.4125 14.6962L9.77719 10.4738L4.3125 15.255V18.9375H21.75C21.8992 18.9375 22.0423 18.9968 22.1477 19.1023C22.2532 19.2077 22.3125 19.3508 22.3125 19.5Z" fill="#592D96"/>
</svg>
