<svg width="21" height="38" viewBox="0 0 21 38" fill="none" xmlns="http://www.w3.org/2000/svg">
<rect x="4.97736" y="13.4725" width="12.2972" height="19.9829" fill="#17273D"/>
<path d="M4.97723 34.2242H17.2744V35.7614C17.2744 36.6103 16.5862 37.2985 15.7373 37.2985H6.51438C5.66544 37.2985 4.97723 36.6103 4.97723 35.7614V34.2242Z" fill="#17273D"/>
<path d="M4.97736 12.7042H17.2745V12.3199C17.2745 9.98534 15.382 8.09278 13.0474 8.09278H9.2045C6.86991 8.09278 4.97736 9.98534 4.97736 12.3199V12.7042Z" fill="#17273D"/>
<path d="M9.38361 1.51562L18.9326 0.663561C19.0221 1.6666 18.2816 2.55227 17.2785 2.64177L9.54566 3.33178L9.38361 1.51562Z" fill="#17273D"/>
<path d="M9.38361 1.51562L18.9326 0.663561C19.0221 1.6666 18.2816 2.55227 17.2785 2.64177L9.54566 3.33178L9.38361 1.51562Z" fill="#17273D"/>
<path d="M11.1907 1.5719L11.1581 6.3664L9.33474 6.354L9.36735 1.5595L11.1907 1.5719Z" fill="#17273D"/>
<path d="M10.8046 3.1095L10.7829 6.2961L8.95957 6.2837L8.98124 3.0971L10.8046 3.1095Z" fill="#17273D"/>
<path d="M12.5978 2.98181L12.5674 7.4423L9.74379 7.42309L9.77413 2.96261L12.5978 2.98181Z" fill="#17273D"/>
<path d="M19.5165 5.59531C18.9529 4.7755 14.6702 3.75927 12.5993 3.35364C12.2791 3.95142 11.7667 5.13416 12.2791 5.08293C12.9196 5.01888 14.1365 5.40317 14.905 5.46721C15.6736 5.53126 18.2996 6.29983 19.5165 6.62007C20.7334 6.94031 20.221 6.62007 19.5165 5.59531Z" fill="#17273D"/>
<rect x="1.64722" y="10.3981" width="1.40905" height="10.76" fill="#17273D"/>
<path d="M0.75061 21.1595H3.8249L3.953 32.8803H0.75061V21.1595Z" fill="#17273D"/>
<path d="M2.40186 10.6178C2.36703 9.73286 2.60483 8.84131 3.10832 8.02086C3.61283 7.19877 4.37042 6.4714 5.32602 5.91424C6.28158 5.3571 7.39802 4.99213 8.57573 4.85836C9.75334 4.7246 10.9465 4.82724 12.0464 5.15417" stroke="#17273D" stroke-width="1.28095"/>
</svg>
