<svg width="20" height="35" viewBox="0 0 20 35" fill="none" xmlns="http://www.w3.org/2000/svg">
<rect x="2.20703" y="0.141724" width="15.8762" height="2.37965" rx="1.18983" fill="#17273D"/>
<rect x="5.70929" y="0.674561" width="8.80511" height="2.20206" rx="1.10103" transform="rotate(90.474 5.70929 0.674561)" fill="#17273D"/>
<rect x="16.9128" y="0.160278" width="8.80511" height="2.20206" rx="1.10103" transform="rotate(90.474 16.9128 0.160278)" fill="#17273D"/>
<path d="M0.395569 11.223C0.395569 8.77112 2.38324 6.78345 4.83516 6.78345H15.3128C17.7647 6.78345 19.7524 8.77112 19.7524 11.223V14.2065H0.395569V11.223Z" fill="#17273D"/>
<rect x="0.395569" y="15.9825" width="19.4989" height="7.38757" fill="#17273D"/>
<path d="M0.395569 25.2528H19.7524V29.0532C19.7524 31.1716 18.035 32.889 15.9166 32.889H4.23139C2.11292 32.889 0.395569 31.1716 0.395569 29.0532V25.2528Z" fill="#17273D"/>
<rect x="9.09766" y="5.11426" width="2.16655" height="7.42308" fill="#17273D"/>
<rect x="12.5424" y="4.1908" width="1.03" height="4.7593" rx="0.514999" transform="rotate(90 12.5424 4.1908)" fill="#17273D"/>
<path d="M3.73401 31.7522H16.4491V33.2439C16.4491 34.0476 16.4491 34.4494 16.1995 34.6991C15.9498 34.9487 15.548 34.9487 14.7443 34.9487H5.43882C4.63516 34.9487 4.23334 34.9487 3.98367 34.6991C3.73401 34.4494 3.73401 34.0476 3.73401 33.2439V31.7522Z" fill="#17273D"/>
</svg>
