<svg width="25" height="24" viewBox="0 0 25 24" fill="none" xmlns="http://www.w3.org/2000/svg">
<g clip-path="url(#clip0_10_3583)">
<path d="M22.23 13.3734C21.9732 13.1756 21.6742 13.0399 21.3562 12.9768C21.0383 12.9137 20.7101 12.925 20.3972 13.0097L16.1559 13.9847C16.295 13.6158 16.3425 13.2187 16.2943 12.8275C16.2462 12.4362 16.1039 12.0625 15.8797 11.7383C15.6554 11.4141 15.3558 11.1491 15.0067 10.9661C14.6575 10.7831 14.2692 10.6875 13.875 10.6875H9.18188C8.81239 10.6864 8.44638 10.7587 8.10505 10.9002C7.76372 11.0417 7.45386 11.2495 7.19344 11.5116L5.0175 13.6875H2.25C1.9019 13.6875 1.56806 13.8258 1.32192 14.0719C1.07578 14.3181 0.9375 14.6519 0.9375 15V18.75C0.9375 19.0981 1.07578 19.4319 1.32192 19.6781C1.56806 19.9242 1.9019 20.0625 2.25 20.0625H12C12.0461 20.0625 12.0921 20.0568 12.1369 20.0456L18.1369 18.5456C18.1653 18.5381 18.1931 18.5287 18.2203 18.5175L21.8597 16.9688L21.8906 16.9547C22.2124 16.794 22.488 16.554 22.6914 16.2574C22.8948 15.9608 23.0194 15.6172 23.0533 15.2592C23.0873 14.9011 23.0295 14.5403 22.8855 14.2107C22.7414 13.8811 22.5158 13.5936 22.23 13.3753V13.3734ZM2.0625 18.75V15C2.0625 14.9503 2.08225 14.9026 2.11742 14.8674C2.15258 14.8323 2.20027 14.8125 2.25 14.8125H4.6875V18.9375H2.25C2.20027 18.9375 2.15258 18.9177 2.11742 18.8826C2.08225 18.8474 2.0625 18.7997 2.0625 18.75ZM21.4012 15.9375L17.82 17.4628L11.9306 18.9375H5.8125V14.4834L7.98844 12.3066C8.1448 12.1494 8.3308 12.0248 8.53566 11.94C8.74051 11.8552 8.96016 11.8118 9.18188 11.8125H13.875C14.2231 11.8125 14.5569 11.9508 14.8031 12.1969C15.0492 12.4431 15.1875 12.7769 15.1875 13.125C15.1875 13.4731 15.0492 13.8069 14.8031 14.0531C14.5569 14.2992 14.2231 14.4375 13.875 14.4375H11.25C11.1008 14.4375 10.9577 14.4968 10.8523 14.6023C10.7468 14.7077 10.6875 14.8508 10.6875 15C10.6875 15.1492 10.7468 15.2923 10.8523 15.3977C10.9577 15.5032 11.1008 15.5625 11.25 15.5625H14.25C14.2923 15.5625 14.3344 15.5578 14.3756 15.5484L20.6569 14.1038L20.6794 14.0981C20.9158 14.0337 21.1677 14.0588 21.3867 14.1688C21.6057 14.2787 21.7763 14.4657 21.8658 14.6938C21.9553 14.9219 21.9574 15.1751 21.8717 15.4046C21.7859 15.6342 21.6184 15.824 21.4012 15.9375ZM16.125 8.8125C16.3544 8.81238 16.5832 8.78786 16.8075 8.73938C16.9762 9.33849 17.3166 9.8751 17.7867 10.283C18.2569 10.6909 18.8361 10.9522 19.453 11.0348C20.07 11.1173 20.6975 11.0174 21.2583 10.7474C21.8191 10.4774 22.2886 10.0492 22.6089 9.51545C22.9291 8.98175 23.0861 8.36597 23.0605 7.74408C23.0348 7.1222 22.8277 6.52143 22.4646 6.01591C22.1015 5.51038 21.5983 5.12222 21.0172 4.89932C20.4361 4.67642 19.8024 4.62853 19.1944 4.76156C19.0337 4.19055 18.7168 3.67569 18.2795 3.27494C17.8421 2.87418 17.3016 2.60341 16.7188 2.4931C16.1359 2.38279 15.5339 2.43731 14.9803 2.65053C14.4268 2.86375 13.9437 3.22721 13.5855 3.70001C13.2272 4.17282 13.008 4.73621 12.9525 5.3268C12.897 5.9174 13.0074 6.51176 13.2713 7.04303C13.5352 7.57429 13.9421 8.02137 14.4463 8.33398C14.9504 8.64658 15.5318 8.81231 16.125 8.8125ZM21.9375 7.875C21.9375 8.28292 21.8165 8.68169 21.5899 9.02086C21.3633 9.36004 21.0412 9.6244 20.6643 9.7805C20.2874 9.93661 19.8727 9.97745 19.4726 9.89787C19.0725 9.81829 18.705 9.62185 18.4166 9.33341C18.1281 9.04496 17.9317 8.67746 17.8521 8.27737C17.7725 7.87729 17.8134 7.46259 17.9695 7.08572C18.1256 6.70884 18.39 6.38673 18.7291 6.16009C19.0683 5.93346 19.4671 5.8125 19.875 5.8125C20.422 5.8125 20.9466 6.0298 21.3334 6.41659C21.7202 6.80339 21.9375 7.32799 21.9375 7.875ZM16.125 3.5625C16.5985 3.56194 17.0577 3.72476 17.4251 4.02348C17.7925 4.3222 18.0455 4.73853 18.1416 5.20219C17.7338 5.46658 17.3919 5.8207 17.142 6.23748C16.8921 6.65426 16.7408 7.12266 16.6997 7.60688C16.4162 7.68857 16.1184 7.70847 15.8265 7.66525C15.5347 7.62202 15.2555 7.51668 15.0078 7.35632C14.7601 7.19597 14.5497 6.98434 14.3908 6.73572C14.2319 6.4871 14.1282 6.20728 14.0867 5.91515C14.0452 5.62303 14.0668 5.3254 14.1502 5.04236C14.2335 4.75931 14.3766 4.49745 14.5698 4.27445C14.7631 4.05144 15.0019 3.87249 15.2701 3.74967C15.5384 3.62685 15.8299 3.56303 16.125 3.5625Z" fill="#592D96"/>
</g>
<defs>
<clipPath id="clip0_10_3583">
<rect width="24" height="24" fill="white" transform="translate(0.75)"/>
</clipPath>
</defs>
</svg>
