<svg width="25" height="24" viewBox="0 0 25 24" fill="none" xmlns="http://www.w3.org/2000/svg">
<path d="M19.5441 5.25656C18.6643 4.36743 17.6176 3.66072 16.4641 3.17696C15.3107 2.6932 14.073 2.44191 12.8222 2.4375H12.75C10.2139 2.4375 7.78161 3.44497 5.98829 5.23829C4.19497 7.03161 3.1875 9.46387 3.1875 12V17.25C3.1875 17.797 3.4048 18.3216 3.79159 18.7084C4.17839 19.0952 4.70299 19.3125 5.25 19.3125H6.75C7.29701 19.3125 7.82161 19.0952 8.20841 18.7084C8.5952 18.3216 8.8125 17.797 8.8125 17.25V13.5C8.8125 12.953 8.5952 12.4284 8.20841 12.0416C7.82161 11.6548 7.29701 11.4375 6.75 11.4375H4.33125C4.47394 9.30187 5.42295 7.30028 6.98608 5.83811C8.5492 4.37595 10.6096 3.56249 12.75 3.5625H12.8137C14.9452 3.57196 16.9935 4.39035 18.5447 5.85221C20.0958 7.31408 21.034 9.31037 21.1697 11.4375H18.75C18.203 11.4375 17.6784 11.6548 17.2916 12.0416C16.9048 12.4284 16.6875 12.953 16.6875 13.5V17.25C16.6875 17.797 16.9048 18.3216 17.2916 18.7084C17.6784 19.0952 18.203 19.3125 18.75 19.3125H21.1875V19.5C21.1875 20.1465 20.9307 20.7665 20.4736 21.2236C20.0165 21.6807 19.3965 21.9375 18.75 21.9375H13.5C13.3508 21.9375 13.2077 21.9968 13.1023 22.1023C12.9968 22.2077 12.9375 22.3508 12.9375 22.5C12.9375 22.6492 12.9968 22.7923 13.1023 22.8977C13.2077 23.0032 13.3508 23.0625 13.5 23.0625H18.75C19.6948 23.0625 20.601 22.6872 21.2691 22.0191C21.9372 21.351 22.3125 20.4448 22.3125 19.5V12C22.3172 10.7491 22.0751 9.50964 21.6001 8.35249C21.125 7.19535 20.4263 6.14328 19.5441 5.25656ZM6.75 12.5625C6.99864 12.5625 7.2371 12.6613 7.41291 12.8371C7.58873 13.0129 7.6875 13.2514 7.6875 13.5V17.25C7.6875 17.4986 7.58873 17.7371 7.41291 17.9129C7.2371 18.0887 6.99864 18.1875 6.75 18.1875H5.25C5.00136 18.1875 4.7629 18.0887 4.58709 17.9129C4.41127 17.7371 4.3125 17.4986 4.3125 17.25V12.5625H6.75ZM17.8125 17.25V13.5C17.8125 13.2514 17.9113 13.0129 18.0871 12.8371C18.2629 12.6613 18.5014 12.5625 18.75 12.5625H21.1875V18.1875H18.75C18.5014 18.1875 18.2629 18.0887 18.0871 17.9129C17.9113 17.7371 17.8125 17.4986 17.8125 17.25Z" fill="#592D96"/>
</svg>
