<svg width="25" height="24" viewBox="0 0 25 24" fill="none" xmlns="http://www.w3.org/2000/svg">
<path d="M12.25 6.1875C11.5454 6.1875 10.8566 6.39644 10.2708 6.78789C9.68493 7.17934 9.22832 7.73573 8.95868 8.38669C8.68904 9.03765 8.61849 9.75395 8.75595 10.445C8.89341 11.1361 9.23271 11.7708 9.73093 12.2691C10.2292 12.7673 10.8639 13.1066 11.555 13.244C12.246 13.3815 12.9623 13.311 13.6133 13.0413C14.2643 12.7717 14.8207 12.3151 15.2121 11.7292C15.6036 11.1434 15.8125 10.4546 15.8125 9.75C15.8125 8.80517 15.4372 7.89903 14.7691 7.23093C14.101 6.56283 13.1948 6.1875 12.25 6.1875ZM12.25 12.1875C11.7679 12.1875 11.2966 12.0445 10.8958 11.7767C10.495 11.5089 10.1825 11.1282 9.99804 10.6828C9.81356 10.2374 9.76528 9.7473 9.85934 9.27447C9.95339 8.80164 10.1855 8.36732 10.5264 8.02643C10.8673 7.68554 11.3016 7.45339 11.7745 7.35934C12.2473 7.26528 12.7374 7.31356 13.1828 7.49804C13.6282 7.68253 14.0089 7.99495 14.2767 8.3958C14.5445 8.79664 14.6875 9.26791 14.6875 9.75C14.6875 10.3965 14.4307 11.0165 13.9736 11.4736C13.5165 11.9307 12.8965 12.1875 12.25 12.1875ZM12.25 1.6875C10.1125 1.68998 8.06317 2.54022 6.55169 4.05169C5.04022 5.56317 4.18998 7.61245 4.1875 9.75C4.1875 12.6478 5.53188 15.7256 8.07531 18.6506C9.22329 19.9773 10.5153 21.1722 11.9275 22.2131C12.022 22.2793 12.1346 22.3148 12.25 22.3148C12.3654 22.3148 12.478 22.2793 12.5725 22.2131C13.9847 21.1722 15.2767 19.9773 16.4247 18.6506C18.9681 15.7256 20.3125 12.6506 20.3125 9.75C20.31 7.61245 19.4598 5.56317 17.9483 4.05169C16.4368 2.54022 14.3875 1.68998 12.25 1.6875ZM12.25 21.0478C10.8438 19.9622 5.3125 15.3394 5.3125 9.75C5.3125 7.91006 6.04341 6.14548 7.34445 4.84445C8.64548 3.54341 10.4101 2.8125 12.25 2.8125C14.0899 2.8125 15.8545 3.54341 17.1556 4.84445C18.4566 6.14548 19.1875 7.91006 19.1875 9.75C19.1875 15.3394 13.6562 19.9622 12.25 21.0478Z" fill="#592D96"/>
</svg>
