<svg width="41" height="40" viewBox="0 0 41 40" fill="none" xmlns="http://www.w3.org/2000/svg">
<path d="M25.3125 18.5C25.3125 18.6492 25.2532 18.7923 25.1477 18.8977C25.0423 19.0032 24.8992 19.0625 24.75 19.0625H17.25C17.1008 19.0625 16.9577 19.0032 16.8523 18.8977C16.7468 18.7923 16.6875 18.6492 16.6875 18.5C16.6875 18.3508 16.7468 18.2077 16.8523 18.1023C16.9577 17.9968 17.1008 17.9375 17.25 17.9375H24.75C24.8992 17.9375 25.0423 17.9968 25.1477 18.1023C25.2532 18.2077 25.3125 18.3508 25.3125 18.5ZM24.75 20.9375H17.25C17.1008 20.9375 16.9577 20.9968 16.8523 21.1023C16.7468 21.2077 16.6875 21.3508 16.6875 21.5C16.6875 21.6492 16.7468 21.7923 16.8523 21.8977C16.9577 22.0032 17.1008 22.0625 17.25 22.0625H24.75C24.8992 22.0625 25.0423 22.0032 25.1477 21.8977C25.2532 21.7923 25.3125 21.6492 25.3125 21.5C25.3125 21.3508 25.2532 21.2077 25.1477 21.1023C25.0423 20.9968 24.8992 20.9375 24.75 20.9375ZM29.8125 14V25.25C29.8125 25.797 29.5952 26.3216 29.2084 26.7084C28.8216 27.0952 28.297 27.3125 27.75 27.3125H11.25C10.7044 27.3125 10.1811 27.0964 9.79457 26.7114C9.40802 26.3264 9.18973 25.804 9.1875 25.2584V16.25C9.1875 16.1008 9.24676 15.9577 9.35225 15.8523C9.45774 15.7468 9.60082 15.6875 9.75 15.6875C9.89918 15.6875 10.0423 15.7468 10.1477 15.8523C10.2532 15.9577 10.3125 16.1008 10.3125 16.25V25.25C10.3125 25.4986 10.4113 25.7371 10.5871 25.9129C10.7629 26.0887 11.0014 26.1875 11.25 26.1875C11.4986 26.1875 11.7371 26.0887 11.9129 25.9129C12.0887 25.7371 12.1875 25.4986 12.1875 25.25V14C12.1875 13.6519 12.3258 13.3181 12.5719 13.0719C12.8181 12.8258 13.1519 12.6875 13.5 12.6875H28.5C28.8481 12.6875 29.1819 12.8258 29.4281 13.0719C29.6742 13.3181 29.8125 13.6519 29.8125 14ZM28.6875 14C28.6875 13.9503 28.6677 13.9026 28.6326 13.8674C28.5974 13.8323 28.5497 13.8125 28.5 13.8125H13.5C13.4503 13.8125 13.4026 13.8323 13.3674 13.8674C13.3323 13.9026 13.3125 13.9503 13.3125 14V25.25C13.3129 25.576 13.2354 25.8974 13.0866 26.1875H27.75C27.9986 26.1875 28.2371 26.0887 28.4129 25.9129C28.5887 25.7371 28.6875 25.4986 28.6875 25.25V14Z" fill="#7C758A"/>
</svg>
