<svg width="25" height="24" viewBox="0 0 25 24" fill="none" xmlns="http://www.w3.org/2000/svg">
<path d="M17.3125 9.75C17.3125 9.89918 17.2532 10.0423 17.1477 10.1477C17.0423 10.2532 16.8992 10.3125 16.75 10.3125H7.75C7.60082 10.3125 7.45774 10.2532 7.35225 10.1477C7.24676 10.0423 7.1875 9.89918 7.1875 9.75C7.1875 9.60082 7.24676 9.45774 7.35225 9.35225C7.45774 9.24676 7.60082 9.1875 7.75 9.1875H16.75C16.8992 9.1875 17.0423 9.24676 17.1477 9.35225C17.2532 9.45774 17.3125 9.60082 17.3125 9.75ZM16.75 12.1875H7.75C7.60082 12.1875 7.45774 12.2468 7.35225 12.3523C7.24676 12.4577 7.1875 12.6008 7.1875 12.75C7.1875 12.8992 7.24676 13.0423 7.35225 13.1477C7.45774 13.2532 7.60082 13.3125 7.75 13.3125H16.75C16.8992 13.3125 17.0423 13.2532 17.1477 13.1477C17.2532 13.0423 17.3125 12.8992 17.3125 12.75C17.3125 12.6008 17.2532 12.4577 17.1477 12.3523C17.0423 12.2468 16.8992 12.1875 16.75 12.1875ZM21.8125 5.25V19.5C21.8124 19.5959 21.7878 19.6901 21.741 19.7738C21.6943 19.8575 21.6269 19.9278 21.5453 19.9781C21.4568 20.0334 21.3544 20.0627 21.25 20.0625C21.1628 20.0626 21.0768 20.0423 20.9988 20.0034L18.25 18.6291L15.5012 20.0034C15.4232 20.0424 15.3372 20.0627 15.25 20.0627C15.1628 20.0627 15.0768 20.0424 14.9988 20.0034L12.25 18.6291L9.50125 20.0034C9.42322 20.0424 9.33721 20.0627 9.25 20.0627C9.16279 20.0627 9.07678 20.0424 8.99875 20.0034L6.25 18.6291L3.50125 20.0034C3.41548 20.0463 3.32018 20.0664 3.22442 20.0621C3.12865 20.0577 3.03558 20.029 2.95406 19.9785C2.87253 19.9281 2.80525 19.8576 2.7586 19.7739C2.71194 19.6901 2.68747 19.5959 2.6875 19.5V5.25C2.6875 4.9019 2.82578 4.56806 3.07192 4.32192C3.31806 4.07578 3.6519 3.9375 4 3.9375H20.5C20.8481 3.9375 21.1819 4.07578 21.4281 4.32192C21.6742 4.56806 21.8125 4.9019 21.8125 5.25ZM20.6875 5.25C20.6875 5.20027 20.6677 5.15258 20.6326 5.11742C20.5974 5.08225 20.5497 5.0625 20.5 5.0625H4C3.95027 5.0625 3.90258 5.08225 3.86742 5.11742C3.83225 5.15258 3.8125 5.20027 3.8125 5.25V18.5897L5.99875 17.4966C6.07678 17.4576 6.16279 17.4373 6.25 17.4373C6.33721 17.4373 6.42322 17.4576 6.50125 17.4966L9.25 18.8709L11.9987 17.4966C12.0768 17.4576 12.1628 17.4373 12.25 17.4373C12.3372 17.4373 12.4232 17.4576 12.5012 17.4966L15.25 18.8709L17.9988 17.4966C18.0768 17.4576 18.1628 17.4373 18.25 17.4373C18.3372 17.4373 18.4232 17.4576 18.5012 17.4966L20.6875 18.5897V5.25Z" fill="#592D96"/>
</svg>
