<svg width="41" height="40" viewBox="0 0 41 40" fill="none" xmlns="http://www.w3.org/2000/svg">
<path d="M30.2356 24.2187C30.3106 24.3475 30.3314 24.5008 30.2934 24.645C30.2555 24.7891 30.1618 24.9123 30.0331 24.9874L21.0331 30.2374C20.9476 30.2868 20.8506 30.3128 20.7519 30.3128C20.6531 30.3128 20.5561 30.2868 20.4706 30.2374L11.4706 24.9874C11.3524 24.9078 11.2689 24.7862 11.2369 24.6473C11.2049 24.5084 11.2269 24.3625 11.2983 24.2392C11.3698 24.1158 11.4854 24.0242 11.6218 23.9828C11.7582 23.9414 11.9052 23.9533 12.0331 24.0162L20.7519 29.1003L29.4706 24.0162C29.5991 23.9424 29.7515 23.9223 29.8948 23.9602C30.038 23.9981 30.1605 24.091 30.2356 24.2187ZM29.4688 19.5143L20.75 24.5984L12.0312 19.5143C11.9033 19.4515 11.7563 19.4395 11.6199 19.4809C11.4835 19.5223 11.3679 19.6139 11.2965 19.7373C11.225 19.8606 11.2031 20.0065 11.2351 20.1454C11.267 20.2843 11.3506 20.4059 11.4688 20.4856L20.4688 25.7356C20.5543 25.7849 20.6513 25.8109 20.75 25.8109C20.8487 25.8109 20.9457 25.7849 21.0312 25.7356L30.0312 20.4856C30.1494 20.4059 30.233 20.2843 30.2649 20.1454C30.2969 20.0065 30.275 19.8606 30.2035 19.7373C30.1321 19.6139 30.0165 19.5223 29.8801 19.4809C29.7437 19.4395 29.5967 19.4515 29.4688 19.5143ZM11.1875 15.5C11.1878 15.4015 11.2139 15.3048 11.2632 15.2196C11.3126 15.1343 11.3835 15.0636 11.4688 15.0143L20.4688 9.76433C20.5543 9.71496 20.6513 9.68896 20.75 9.68896C20.8487 9.68896 20.9457 9.71496 21.0312 9.76433L30.0312 15.0143C30.1161 15.0639 30.1864 15.1348 30.2353 15.22C30.2842 15.3052 30.3099 15.4017 30.3099 15.5C30.3099 15.5982 30.2842 15.6947 30.2353 15.7799C30.1864 15.8651 30.1161 15.936 30.0312 15.9856L21.0312 21.2356C20.9457 21.2849 20.8487 21.3109 20.75 21.3109C20.6513 21.3109 20.5543 21.2849 20.4688 21.2356L11.4688 15.9856C11.3835 15.9363 11.3126 15.8656 11.2632 15.7803C11.2139 15.6951 11.1878 15.5984 11.1875 15.5ZM12.8666 15.5L20.75 20.0984L28.6334 15.5L20.75 10.9062L12.8666 15.5Z" fill="#7C758A"/>
</svg>
