<svg width="25" height="24" viewBox="0 0 25 24" fill="none" xmlns="http://www.w3.org/2000/svg">
<path d="M11.6025 14.6025L20.6025 5.6025C20.7091 5.50314 20.8502 5.44905 20.9959 5.45162C21.1416 5.45419 21.2807 5.51322 21.3837 5.61628C21.4868 5.71934 21.5458 5.85838 21.5484 6.00411C21.5509 6.14983 21.4969 6.29087 21.3975 6.3975L12.3975 15.3975C12.2909 15.4969 12.1498 15.551 12.0041 15.5484C11.8584 15.5458 11.7193 15.4868 11.6163 15.3837C11.5132 15.2807 11.4542 15.1416 11.4516 14.9959C11.449 14.8502 11.5031 14.7091 11.6025 14.6025ZM12.75 8.0625C13.4219 8.06182 14.0894 8.17075 14.7262 8.385C14.8677 8.43261 15.0223 8.42208 15.156 8.35571C15.2897 8.28934 15.3916 8.17257 15.4392 8.03109C15.4868 7.88962 15.4763 7.73502 15.4099 7.60131C15.3436 7.46761 15.2268 7.36574 15.0853 7.31812C13.9199 6.9253 12.6743 6.83273 11.4637 7.04897C10.2531 7.26521 9.11654 7.78328 8.15924 8.55526C7.20193 9.32723 6.45478 10.3282 5.98691 11.4655C5.51903 12.6028 5.34555 13.8397 5.4825 15.0619C5.49779 15.2001 5.56374 15.3277 5.66762 15.4202C5.7715 15.5126 5.90594 15.5633 6.045 15.5625C6.06591 15.5639 6.0869 15.5639 6.10781 15.5625C6.25596 15.546 6.39151 15.4714 6.48468 15.355C6.57784 15.2386 6.62101 15.09 6.60469 14.9419C6.57827 14.7122 6.56419 14.4812 6.5625 14.25C6.56448 12.6096 7.21702 11.0369 8.37697 9.87697C9.53692 8.71702 11.1096 8.06448 12.75 8.0625ZM21.9375 9.55313C21.9038 9.48738 21.8574 9.42893 21.8011 9.3811C21.7448 9.33327 21.6796 9.297 21.6092 9.27437C21.5389 9.25173 21.4648 9.24317 21.3911 9.24918C21.3175 9.25519 21.2457 9.27564 21.18 9.30938C21.1143 9.34311 21.0558 9.38946 21.008 9.44578C20.9601 9.50211 20.9239 9.5673 20.9012 9.63764C20.8786 9.70798 20.87 9.78209 20.8761 9.85574C20.8821 9.92939 20.9025 10.0011 20.9362 10.0669C21.5027 11.1785 21.8376 12.3935 21.9207 13.6384C22.0039 14.8832 21.8335 16.132 21.42 17.3091C21.4075 17.3466 21.3835 17.3793 21.3513 17.4024C21.3192 17.4254 21.2805 17.4377 21.2409 17.4375H4.26187C4.22207 17.4365 4.18354 17.4233 4.15151 17.3996C4.11948 17.376 4.09549 17.3431 4.08281 17.3053C3.5993 15.9195 3.45401 14.4383 3.65906 12.985C3.86411 11.5316 4.41355 10.1484 5.26159 8.95049C6.10964 7.75258 7.23172 6.77472 8.53432 6.09841C9.83692 5.4221 11.2823 5.06693 12.75 5.0625H12.8344C14.2602 5.07161 15.6639 5.41587 16.9322 6.0675C16.9982 6.10129 17.0702 6.12176 17.1441 6.12773C17.218 6.1337 17.2923 6.12506 17.3629 6.10229C17.4334 6.07953 17.4988 6.04309 17.5553 5.99505C17.6118 5.94702 17.6582 5.88833 17.692 5.82234C17.7258 5.75635 17.7463 5.68436 17.7523 5.61046C17.7582 5.53656 17.7496 5.46221 17.7268 5.39165C17.7041 5.32109 17.6676 5.25571 17.6196 5.19923C17.5715 5.14276 17.5129 5.09629 17.4469 5.0625C16.0219 4.33174 14.4451 3.94637 12.8437 3.9375H12.75C11.1011 3.93831 9.47647 4.33428 8.01213 5.09222C6.54779 5.85016 5.28642 6.948 4.33369 8.29377C3.38097 9.63953 2.76464 11.194 2.53635 12.827C2.30805 14.46 2.47444 16.1239 3.02156 17.6794C3.11179 17.9366 3.27947 18.1597 3.50155 18.3178C3.72364 18.4759 3.98924 18.5614 4.26187 18.5625H21.2372C21.5092 18.5618 21.7743 18.477 21.9961 18.3198C22.218 18.1625 22.3858 17.9405 22.4766 17.6841C22.9419 16.3629 23.1341 14.9609 23.0414 13.5633C22.9487 12.1656 22.5732 10.8013 21.9375 9.55313Z" fill="#592D96"/>
</svg>
