<svg width="32" height="32" viewBox="0 0 32 32" fill="none" xmlns="http://www.w3.org/2000/svg">
<path d="M29.5398 6.1939L26.1995 9.53427C25.5043 10.2297 24.3769 10.2297 23.6815 9.53427L22.1355 7.98826C21.4403 7.29312 21.4403 6.16573 22.1355 5.47028L25.4758 2.12991C23.0597 1.24899 20.2476 1.77042 18.3093 3.70875C16.379 5.63903 15.8542 8.43568 16.7199 10.8453L2.60606 24.9588C1.47279 26.0921 1.47279 27.9298 2.60606 29.0631L2.60668 29.0637C3.73995 30.197 5.57764 30.197 6.71091 29.0637L20.8248 14.9498C23.2341 15.8153 26.0307 15.2907 27.961 13.3605C29.8993 11.4221 30.421 8.60999 29.5398 6.1939ZM4.47595 28.1512C3.92016 28.1512 3.46963 27.7007 3.46963 27.1449C3.46963 26.5891 3.92016 26.1386 4.47595 26.1386C5.03175 26.1386 5.48227 26.5891 5.48227 27.1449C5.48227 27.7007 5.03175 28.1512 4.47595 28.1512Z" fill="#17273D" stroke="#333333" stroke-width="2.8323" stroke-miterlimit="10" stroke-linecap="round" stroke-linejoin="round"/>
</svg>
