<svg width="25" height="24" viewBox="0 0 25 24" fill="none" xmlns="http://www.w3.org/2000/svg">
<path d="M13.1875 19.125C13.1875 19.3104 13.1325 19.4917 13.0295 19.6458C12.9265 19.8 12.7801 19.9202 12.6088 19.9911C12.4375 20.0621 12.249 20.0806 12.0671 20.0445C11.8852 20.0083 11.7182 19.919 11.5871 19.7879C11.456 19.6568 11.3667 19.4897 11.3305 19.3079C11.2943 19.126 11.3129 18.9375 11.3839 18.7662C11.4548 18.5949 11.575 18.4485 11.7292 18.3455C11.8833 18.2425 12.0646 18.1875 12.25 18.1875C12.4986 18.1875 12.7371 18.2863 12.9129 18.4621C13.0887 18.6379 13.1875 18.8763 13.1875 19.125ZM19.795 7.49999L21.6475 5.64749C21.7469 5.54086 21.801 5.39982 21.7984 5.2541C21.7958 5.10837 21.7368 4.96933 21.6337 4.86627C21.5307 4.76321 21.3916 4.70418 21.2459 4.70161C21.1002 4.69904 20.9591 4.75313 20.8525 4.85249L19 6.70499L17.1475 4.85249C17.0409 4.75313 16.8998 4.69904 16.7541 4.70161C16.6084 4.70418 16.4693 4.76321 16.3663 4.86627C16.2632 4.96933 16.2042 5.10837 16.2016 5.2541C16.199 5.39982 16.2531 5.54086 16.3525 5.64749L18.205 7.49999L16.3525 9.35249C16.2972 9.40398 16.2529 9.46608 16.2222 9.53508C16.1914 9.60408 16.1749 9.67857 16.1736 9.7541C16.1722 9.82962 16.1861 9.90464 16.2144 9.97469C16.2427 10.0447 16.2848 10.1084 16.3382 10.1618C16.3916 10.2152 16.4553 10.2573 16.5253 10.2856C16.5953 10.3139 16.6704 10.3278 16.7459 10.3264C16.8214 10.3251 16.8959 10.3086 16.9649 10.2778C17.0339 10.2471 17.096 10.2028 17.1475 10.1475L19 8.29499L20.8525 10.1475C20.9591 10.2468 21.1002 10.3009 21.2459 10.2984C21.3916 10.2958 21.5307 10.2368 21.6337 10.1337C21.7368 10.0306 21.7958 9.8916 21.7984 9.74588C21.801 9.60015 21.7469 9.45912 21.6475 9.35249L19.795 7.49999ZM16.3309 15.014C15.1451 14.1515 13.7164 13.6868 12.25 13.6868C10.7836 13.6868 9.35492 14.1515 8.16906 15.014C8.05202 15.1031 7.97454 15.2345 7.95321 15.3801C7.93188 15.5256 7.96842 15.6737 8.05497 15.7926C8.14153 15.9116 8.27123 15.9919 8.41628 16.0163C8.56133 16.0408 8.71018 16.0074 8.83094 15.9234C9.82447 15.2008 11.0214 14.8115 12.25 14.8115C13.4786 14.8115 14.6755 15.2008 15.6691 15.9234C15.7897 16.0112 15.9402 16.0474 16.0875 16.0242C16.2348 16.001 16.3669 15.9202 16.4547 15.7997C16.5424 15.6791 16.5787 15.5286 16.5555 15.3812C16.5323 15.2339 16.4515 15.1018 16.3309 15.014ZM12.9728 5.82655C13.122 5.83376 13.2679 5.78141 13.3785 5.68102C13.4891 5.58063 13.5553 5.44042 13.5625 5.29124C13.5697 5.14205 13.5174 4.99611 13.417 4.88553C13.3166 4.77494 13.1764 4.70876 13.0272 4.70155C12.7694 4.68936 12.5078 4.6828 12.25 4.6828C8.56426 4.68639 4.99325 5.96494 2.14281 8.30155C2.08539 8.34834 2.03777 8.40601 2.00269 8.47125C1.96761 8.53649 1.94577 8.60802 1.9384 8.68173C1.93104 8.75543 1.93831 8.82987 1.95979 8.90076C1.98128 8.97165 2.01655 9.0376 2.06358 9.09482C2.11062 9.15204 2.1685 9.19941 2.23389 9.23421C2.29928 9.269 2.3709 9.29054 2.44464 9.29758C2.51838 9.30462 2.59278 9.29703 2.66358 9.27524C2.73437 9.25345 2.80017 9.2179 2.85719 9.17061C5.50673 7.00075 8.82533 5.81428 12.25 5.81249C12.49 5.81249 12.7338 5.81811 12.9728 5.82936V5.82655ZM12.9616 10.3341C13.1107 10.3442 13.2579 10.2948 13.3706 10.1965C13.4833 10.0982 13.5523 9.95917 13.5625 9.80999C13.5727 9.6608 13.5232 9.51368 13.4249 9.40098C13.3266 9.28828 13.1876 9.21924 13.0384 9.20905C12.7769 9.19124 12.5116 9.18186 12.25 9.18186C9.67126 9.17231 7.16654 10.0435 5.15031 11.6512C5.03333 11.744 4.95798 11.8794 4.94083 12.0277C4.92369 12.176 4.96616 12.325 5.05891 12.442C5.15165 12.559 5.28707 12.6344 5.43537 12.6515C5.58367 12.6686 5.7327 12.6262 5.84969 12.5334C7.66771 11.0854 9.92581 10.3018 12.25 10.3125C12.4863 10.3125 12.7263 10.3209 12.9616 10.3369V10.3341Z" fill="#592D96"/>
</svg>
