<?xml version="1.0" standalone="no"?>
<!DOCTYPE svg PUBLIC "-//W3C//DTD SVG 20010904//EN"
 "http://www.w3.org/TR/2001/REC-SVG-20010904/DTD/svg10.dtd">
<svg version="1.0" xmlns="http://www.w3.org/2000/svg"
 width="512.000000pt" height="512.000000pt" viewBox="0 0 512.000000 512.000000"
 preserveAspectRatio="xMidYMid meet">

<g transform="translate(0.000000,512.000000) scale(0.100000,-0.100000)"
fill="#000000" stroke="none">
<path d="M315 5101 c-110 -27 -216 -114 -268 -220 l-32 -66 0 -2255 0 -2255
32 -66 c39 -80 120 -159 200 -197 l58 -27 2255 0 2255 0 66 32 c80 39 159 120
197 200 l27 58 0 2255 0 2255 -27 58 c-38 80 -117 161 -197 200 l-66 32 -2235
2 c-1229 0 -2248 -2 -2265 -6z m2920 -1190 c502 -106 798 -475 798 -996 0
-417 -196 -831 -565 -1191 -172 -168 -308 -265 -513 -364 -484 -236 -1040
-235 -1424 1 -275 170 -443 459 -440 763 l0 81 20 -74 c76 -284 250 -490 524
-621 191 -92 362 -130 581 -130 340 0 668 131 911 365 l78 76 -70 -44 c-432
-272 -919 -328 -1334 -153 -334 141 -526 379 -588 731 -28 160 -6 407 51 575
l16 45 -6 -49 c-12 -104 -4 -310 15 -401 91 -435 445 -734 918 -773 380 -32
797 113 1135 394 218 183 356 387 420 622 28 105 31 327 5 422 -56 207 -185
366 -371 460 -137 68 -212 84 -421 84 -210 1 -284 -14 -444 -89 -121 -58 -198
-114 -292 -212 -140 -147 -209 -295 -216 -468 -9 -193 47 -347 171 -471 118
-117 268 -174 460 -174 351 1 647 195 739 485 18 57 22 93 22 200 0 125 -1
133 -31 195 -95 201 -322 278 -571 195 -96 -32 -156 -70 -221 -139 -145 -154
-163 -379 -38 -494 57 -53 103 -67 206 -66 185 2 334 109 435 311 l35 68 0
-38 c0 -66 -30 -189 -65 -265 -58 -125 -173 -221 -308 -256 -261 -68 -484 19
-582 227 -71 150 -67 286 11 446 99 200 307 346 558 390 87 16 255 13 344 -5
371 -75 549 -452 408 -866 -41 -121 -83 -192 -166 -281 -275 -296 -652 -408
-1021 -306 -199 55 -362 163 -459 304 -46 67 -97 180 -121 270 -31 113 -32
315 -2 435 68 272 223 474 482 630 143 86 326 149 492 170 106 13 328 3 434
-19z"/>
</g>
</svg>
